PathFileType	4	(X/Y/Z)	./resultDataOpenSim/trcMotMarkerGrf/sub06/qtm-04-05.trc
DataRate	CameraRate	NumFrames	NumMarkers	Units	OrigDataRate	OrigDataStartFrame	OrigNumFrames
250.000000	250.000000	7	24	m	250.000000	1	530
Frame#	Time	L.Toe.Tip			R.Toe.Tip			L.Ankle.Lat			R.Ankle.Lat			L.Ankle.Med			R.Ankle.Med			L.Heel			R.Heel			L.Knee.Lat			R.Knee.Lat			L.Knee.Med			R.Knee.Med			L.Thigh.Upper			R.Thigh.Upper			L.ASIS			R.ASIS			V.Sacral			L.Acromium			R.Acromium			C7			L.Elbow			R.Elbow			L.Wrist.Lat			R.Wrist.Lat
		X1	Y1	Z1	X2	Y2	Z2	X3	Y3	Z3	X4	Y4	Z4	X5	Y5	Z5	X6	Y6	Z6	X7	Y7	Z7	X8	Y8	Z8	X9	Y9	Z9	X10	Y10	Z10	X11	Y11	Z11	X12	Y12	Z12	X13	Y13	Z13	X14	Y14	Z14	X15	Y15	Z15	X16	Y16	Z16	X17	Y17	Z17	X18	Y18	Z18	X19	Y19	Z19	X20	Y20	Z20	X21	Y21	Z21	X22	Y22	Z22	X23	Y23	Z23	X24	Y24	Z24

1	0	-1.6193019	0.032657724	-0.087324236	-0.97631307	0.11692253	0.14800409	-1.7358232	0.082273696	-0.099817247	-1.104394	0.084778155	0.15759979	-1.7246441	0.092610516	-0.015471637	-1.092472	0.11400434	0.073140873	NaN	NaN	NaN	-1.1391624	0.039670331	0.085776535	-1.5640875	0.41361361	-0.10974655	-1.227776	0.45499839	0.15722449	-1.5718926	0.41159853	0.01003307	-1.2401698	0.43004253	0.029071244	-1.4629893	0.7856757	-0.16061545	-1.4124468	0.77710605	0.18746759	-1.3739055	0.82413984	-0.12804831	-1.3362668	0.83023325	0.11848431	-1.5318684	0.90614099	0.02885766	-1.3726334	1.3068884	-0.17359578	-1.3845142	1.2925929	0.18998076	-1.4527206	1.3437431	0.0066562773	-1.3648277	0.98541045	-0.25035281	NaN	NaN	NaN	-1.152619	0.85782504	-0.2177637	-1.4454403	0.78398138	0.28003669
2	0.004	-1.6190195	0.032710079	-0.087722192	-0.96438748	0.12011202	0.14880797	-1.7353773	0.083154956	-0.099958619	-1.0919406	0.085571542	0.15820087	-1.7238806	0.093325098	-0.015635334	-1.0802874	0.11508703	0.073773948	NaN	NaN	NaN	-1.1257891	0.039768251	0.086299974	-1.560229	0.41281707	-0.10974063	-1.221251	0.45360148	0.15753117	-1.5673026	0.41062999	0.010002711	-1.2339315	0.42784735	0.029060105	-1.4579324	0.78429083	-0.16013579	-1.405577	0.77520514	0.18764693	-1.3684062	0.82273337	-0.1281605	-1.329284	0.82849119	0.11830881	-1.52571	0.90459059	0.030442958	-1.3666629	1.3054132	-0.17292727	-1.3786522	1.2908033	0.19068553	-1.4467529	1.342205	0.0073270697	-1.3567127	0.98389189	-0.24951169	NaN	NaN	NaN	-1.1439881	0.85797373	-0.21572981	-1.4418384	0.78208811	0.28054044
3	0.008	-1.6188897	0.032734413	-0.087945944	-0.95285977	0.12306755	0.14959348	-1.7348762	0.084053886	-0.10012597	-1.0799178	0.086242481	0.15867433	-1.7232823	0.094100127	-0.01578085	-1.0684572	0.11608598	0.074329471	NaN	NaN	NaN	-1.1127847	0.039822625	0.086694682	-1.5562867	0.41203125	-0.10975765	-1.2145325	0.45225545	0.15792151	-1.5626799	0.40962172	0.0099234596	-1.2276109	0.42568952	0.029068543	-1.4528595	0.78289195	-0.15963687	-1.3985633	0.77334208	0.18786429	-1.3628859	0.82132589	-0.12826734	-1.3223328	0.82675398	0.11813259	-1.5195171	0.90305291	0.031989914	-1.3606756	1.3039712	-0.17224122	-1.372827	1.2890643	0.19141966	-1.4407561	1.340693	0.0080477441	-1.3486563	0.98241766	-0.24872491	NaN	NaN	NaN	-1.1353886	0.85810733	-0.21368552	-1.4381467	0.78021279	0.28104811
4	0.012	-1.6189368	0.032718987	-0.087952582	-0.94195025	0.12560284	0.15033792	-1.7342278	0.084992875	-0.10032368	-1.0685444	0.086726444	0.15899353	-1.7228592	0.09495309	-0.015909583	-1.057198	0.11692967	0.074762548	NaN	NaN	NaN	-1.1003757	0.039832346	0.08688394	-1.5521964	0.41124417	-0.10979796	-1.2075434	0.45097603	0.15842868	-1.5579385	0.40858364	0.0097854365	-1.2211333	0.4236015	0.029103191	-1.4477615	0.78147036	-0.15912187	-1.3914675	0.77151987	0.18810925	-1.3573133	0.81992359	-0.12835592	-1.3153882	0.82502678	0.11794973	-1.5133466	0.90155845	0.03340377	-1.3546522	1.3025776	-0.17152466	-1.367005	1.2873901	0.19219174	-1.4347026	1.3392177	0.0088370836	-1.3406733	0.98100486	-0.24797369	NaN	NaN	NaN	-1.1268413	0.85821972	-0.21162253	-1.4343222	0.77837693	0.28156588
5	0.016	-1.6190437	0.032680912	-0.087857281	-0.93170192	0.12759801	0.15101806	-1.7333392	0.085993696	-0.10054334	-1.0578566	0.087007486	0.15919827	-1.7225088	0.095877095	-0.016038535	-1.0465917	0.11756122	0.075072113	NaN	NaN	NaN	-1.0887124	0.039803758	0.086908346	-1.5479371	0.41044412	-0.10984988	-1.2003433	0.44975158	0.1590186	-1.5530513	0.40755154	0.0096163277	-1.2144625	0.42162275	0.029162097	-1.4426016	0.78003867	-0.15858524	-1.3844242	0.76972508	0.18834892	-1.3516727	0.81854003	-0.12841065	-1.3084213	0.82332477	0.1177614	-1.5073317	0.90015192	0.034542968	-1.348592	1.301233	-0.17077488	-1.3611205	1.285771	0.19299333	-1.4285891	1.3377737	0.0096823441	-1.3327629	0.97965498	-0.24720225	NaN	NaN	NaN	-1.1183746	0.85831146	-0.20954675	-1.4303416	0.77660556	0.28210299
6	0.02	-1.6190936	0.032644137	-0.08778894	-0.92205112	0.12899886	0.15160506	-1.7322322	0.087067021	-0.1007777	-1.047808	0.087083014	0.15932804	-1.7221215	0.096885714	-0.016189316	-1.0366373	0.11793662	0.075282988	NaN	NaN	NaN	-1.0779046	0.039699377	0.086887483	-1.5435121	0.40963447	-0.10989952	-1.1930193	0.44856985	0.1596189	-1.5480645	0.40653845	0.0094564625	-1.2075844	0.41980727	0.029243257	-1.4373041	0.77862494	-0.15800098	-1.3774474	0.76796826	0.18857107	-1.3459698	0.81718184	-0.12843979	-1.3014155	0.82166193	0.11757434	-1.5015519	0.89885377	0.03531393	-1.3424987	1.2999341	-0.16999842	-1.3551277	1.284191	0.19381062	-1.4224264	1.3363508	0.01055316	-1.3249177	0.97836689	-0.24637762	NaN	NaN	NaN	-1.1100051	0.85838422	-0.20747201	-1.4261913	0.77490907	0.28266957
7	0.024	-1.6190675	0.032616365	-0.087779088	-0.91291686	0.12979959	0.15204708	-1.7310501	0.088214193	-0.10102519	-1.0383414	0.086955793	0.15942283	-1.7216121	0.097999747	-0.016388634	-1.0273215	0.1180209	0.075414739	NaN	NaN	NaN	-1.0679878	0.039446884	0.086918749	-1.5389279	0.40882639	-0.10993138	-1.1856026	0.44743781	0.16016478	-1.5430001	0.40553459	0.0093362689	-1.2004955	0.41822399	0.029347385	-1.4318249	0.77725155	-0.15736216	-1.3704912	0.76629115	0.18878382	-1.3402335	0.81584179	-0.12849324	-1.2943671	0.8200435	0.11738692	-1.4959436	0.89763362	0.035743263	-1.3363723	1.2986814	-0.16919996	-1.3490234	1.2826384	0.19463454	-1.4162243	1.3349529	0.011433238	-1.3171336	0.97713631	-0.24549427	NaN	NaN	NaN	-1.1017368	0.85843685	-0.20540951	-1.4219075	0.77328108	0.28327199
